HIERARCHY
ROOT root
{
	OFFSET	0	13.1	24.9
	CHANNELS 6  Xposition Yposition Zposition Xrotation Yrotation Zrotation
	JOINT spine_1
	{
		OFFSET	0	9.99999	0
		CHANNELS 3  Xrotation Yrotation Zrotation
		JOINT spine_2
		{
			OFFSET	0	112	-10
			CHANNELS 3  Xrotation Yrotation Zrotation
			JOINT spine_3
			{
				OFFSET	0	206.5	19.3
				CHANNELS 3  Xrotation Yrotation Zrotation
				JOINT spine_4
				{
					OFFSET	0	110.4	14.6
					CHANNELS 3  Xrotation Yrotation Zrotation
					JOINT neck_1
					{
						OFFSET	0	71.8	-50.3
						CHANNELS 3  Xrotation Yrotation Zrotation
						JOINT neck_2
						{
							OFFSET	0	86.2	-25.8
							CHANNELS 3  Xrotation Yrotation Zrotation
							JOINT head_ee
							{
								OFFSET	0	179.8	-8.7
								CHANNELS 3  Xrotation Yrotation Zrotation
								End Site
								{
									OFFSET	1	0	0
								}
							}
						}
					}
					JOINT left_clavicle
					{
						OFFSET	-43.2	22.4	-70.8
						CHANNELS 3  Xrotation Yrotation Zrotation
						JOINT left_shoulder
						{
							OFFSET	-93.9	-5.79999	48.7
							CHANNELS 3  Xrotation Yrotation Zrotation
							JOINT left_elbow
							{
								OFFSET	-291.4	-30.8	15.2
								CHANNELS 3  Xrotation Yrotation Zrotation
								JOINT left_lowarm_twist
								{
									OFFSET	-110.7	-3.89999	13.6
									CHANNELS 3  Xrotation Yrotation Zrotation
									JOINT left_hand
									{
										OFFSET	-110.7	-3.89999	13.6
										CHANNELS 3  Xrotation Yrotation Zrotation
										JOINT left_ee
										{
											OFFSET	-80.8	-5.10001	12.1
											CHANNELS 3  Xrotation Yrotation Zrotation
											End Site
											{
												OFFSET	1	0	0
											}
										}
									}
								}
							}
						}
					}
					JOINT right_clavicle
					{
						OFFSET	43.2	22.4	-70.8
						CHANNELS 3  Xrotation Yrotation Zrotation
						JOINT right_shoulder
						{
							OFFSET	93.9	-5.79999	48.7
							CHANNELS 3  Xrotation Yrotation Zrotation
							JOINT right_elbow
							{
								OFFSET	291.4	-30.8	15.2
								CHANNELS 3  Xrotation Yrotation Zrotation
								JOINT right_lowarm_twist
								{
									OFFSET	110.7	-3.89999	13.6
									CHANNELS 3  Xrotation Yrotation Zrotation
									JOINT right_hand
									{
										OFFSET	110.7	-3.89999	13.6
										CHANNELS 3  Xrotation Yrotation Zrotation
										JOINT right_ee
										{
											OFFSET	80.8	-5.10001	12.1
											CHANNELS 3  Xrotation Yrotation Zrotation
											End Site
											{
												OFFSET	1	0	0
											}
										}
									}
								}
							}
						}
					}
				}
			}
		}
	}
	JOINT left_hip
	{
		OFFSET	-82.8	-127.5	0.300001
		CHANNELS 3  Xrotation Yrotation Zrotation
		JOINT left_knee
		{
			OFFSET	-28.2	-396.7	2.2
			CHANNELS 3  Xrotation Yrotation Zrotation
			JOINT left_ankle
			{
				OFFSET	-11.7	-411.3	35.4
				CHANNELS 3  Xrotation Yrotation Zrotation
				JOINT left_toes
				{
					OFFSET	0	-60	-88.6
					CHANNELS 3  Xrotation Yrotation Zrotation
					JOINT left_foot_ee
					{
						OFFSET	-22.5	-16.5	-42.2
						CHANNELS 3  Xrotation Yrotation Zrotation
						End Site
						{
							OFFSET	1	0	0
						}
					}
				}
			}
		}
	}
	JOINT right_hip
	{
		OFFSET	82.8	-127.5	0.300001
		CHANNELS 3  Xrotation Yrotation Zrotation
		JOINT right_knee
		{
			OFFSET	28.2	-396.7	2.2
			CHANNELS 3  Xrotation Yrotation Zrotation
			JOINT right_ankle
			{
				OFFSET	11.7	-411.3	35.4
				CHANNELS 3  Xrotation Yrotation Zrotation
				JOINT right_toes
				{
					OFFSET	0	-60	-88.6
					CHANNELS 3  Xrotation Yrotation Zrotation
					JOINT right_foot_ee
					{
						OFFSET	22.5	-16.5	-42.2
						CHANNELS 3  Xrotation Yrotation Zrotation
						End Site
						{
							OFFSET	1	0	0
						}
					}
				}
			}
		}
	}
}
MOTION
Frames: 5
Frame Time: 0.02
1372.05 701.618 -1475.22 -0.672576798224 19.1429968396 1.78290841857 -0.790515 -0.333595 -0.942083 -0.790063 -0.272975 -0.961399 -0.785024 -0.0511636 -0.998088 -0.786354 -0.208143 -0.977485 5.2758 17.9872 -1.68576 6.77903 32.3453 -1.53369 -0.0 0.0 -0.0 2.33337 22.7382 5.88321 9.09285 -45.3466 61.6282 3.03085 -56.3229 1.62277 -34.0345 -2.34022 3.60013 -3.68195 -0.649712 -25.7873 -0.0 0.0 -0.0 6.67842 14.6795 -12.4593 -24.1786 12.362 -66.8153 0.343877 9.66753 -0.0290804 6.20751 -0.176985 0.772787 2.17248 -22.9272 -22.328 0.0 0.0 0.0 -16.0286 0.818588 7.25886 -4.96341 0.172301 0.742012 40.556 6.1304 -4.90671 -4.20397 0.0 0.0 -0.0 0.0 -0.0 29.9068 6.47385 -9.59356 1.07206 0.0456281 0.158182 4.0204 -9.85953 0.582493 -6.48004 0.0 0.0 0.0 0.0 0.0 
1344.57612462 691.347 -1528.27191959 -0.97364002568 23.0677365744 2.60935781374 -0.638875 -0.356344 -1.08097 -0.638271 -0.286842 -1.10145 -0.632196 -0.0364109 -1.1376 -0.633937 -0.215605 -1.11757 7.73717 16.7306 -1.85322 9.22359 29.7512 -2.2058 -0.0 0.0 -0.0 1.62334 21.327 4.80275 7.28998 -43.7056 63.2835 2.72135 -53.4225 1.36956 -32.7043 -2.21077 3.48899 -2.66705 0.726966 -17.7612 -0.0 0.0 -0.0 7.51164 13.4999 -14.32 -23.1509 12.4639 -65.9343 0.310485 8.74406 -0.0237381 6.29001 -0.178771 0.783174 1.16684 -22.2391 -15.8894 0.0 0.0 0.0 -16.536 0.280127 6.14102 -11.1467 0.296088 1.68233 40.7807 9.23361 -4.93891 3.43676 -0.0 -0.0 -0.0 0.0 -0.0 33.0867 9.10894 -11.5398 -10.0644 -0.281762 -1.51688 -4.44646 0.317487 -0.664921 -6.86237 0.0 0.0 0.0 0.0 0.0 
1345.2595227 691.347 -1528.62028395 -0.968424973214 22.3322014973 2.59584428666 -0.638875 -0.356344 -1.08097 -0.638271 -0.286842 -1.10145 -0.632196 -0.0364109 -1.1376 -0.633937 -0.215605 -1.11757 7.73717 16.7306 -1.85322 9.22359 29.7512 -2.2058 -0.0 0.0 -0.0 1.62334 21.327 4.80275 7.28998 -43.7056 63.2835 2.72135 -53.4225 1.36956 -32.7043 -2.21077 3.48899 -2.66705 0.726966 -17.7612 -0.0 0.0 -0.0 7.51164 13.4999 -14.32 -23.1509 12.4639 -65.9343 0.310485 8.74406 -0.0237381 6.29001 -0.178771 0.783174 1.16684 -22.2391 -15.8894 0.0 0.0 0.0 -16.536 0.280127 6.14102 -11.1467 0.296088 1.68233 40.7807 9.23361 -4.93891 3.43676 -0.0 -0.0 -0.0 0.0 -0.0 33.0867 9.10894 -11.5398 -10.0644 -0.281762 -1.51688 -4.44646 0.317487 -0.664921 -6.86237 0.0 0.0 0.0 0.0 0.0 
1315.71385609 696.977 -1572.12532797 -1.81349318367 25.1938943454 4.03972266608 -0.38497 -0.187113 -1.21237 -0.384159 -0.109593 -1.22182 -0.381305 0.157767 -1.21654 -0.383368 -0.0363276 -1.22619 10.329 15.4928 -2.48326 11.8342 27.6428 -3.38313 -0.0 0.0 -0.0 1.19354 22.6133 4.28478 3.58947 -42.6283 64.4059 2.57209 -51.865 1.2509 -31.5055 -2.09635 3.38628 -1.90017 1.36457 -12.1598 -0.0 0.0 -0.0 7.9256 14.4192 -15.1678 -20.7682 13.9089 -65.9927 0.416337 11.6536 -0.0424868 6.66901 -0.186782 0.830926 0.469345 -22.4492 -11.7647 0.0 0.0 0.0 -13.9711 -0.821514 4.45938 -16.6524 0.320474 2.5264 40.4721 12.1422 -4.93742 10.3588 -0.0 -0.0 -0.0 0.0 -0.0 34.321 10.4486 -12.9271 -16.4977 -0.320897 -2.50268 -5.85054 9.26355 -0.910569 -6.69209 0.0 0.0 0.0 0.0 0.0 
1302.33547611 700.03 -1593.68421721 -2.19047298087 25.0566787771 4.00761100379 -0.381783 -0.0467684 -1.19258 -0.380992 0.0292078 -1.19314 -0.381193 0.28708 -1.15846 -0.383052 0.100533 -1.18926 8.03698 16.0396 -1.11761 9.31316 27.8626 -1.31701 -0.0 0.0 -0.0 0.943054 23.3436 3.99531 1.96538 -41.7479 64.5868 2.20968 -47.5799 0.974219 -29.9457 -1.95076 3.24913 -1.4347 0.80614 -9.26106 -0.0 0.0 -0.0 8.41728 15.0733 -16.204 -19.3673 15.3844 -64.9122 0.538696 14.9416 -0.070642 6.55792 -0.184467 0.816923 0.418713 -20.5761 -10.8036 0.0 0.0 0.0 -10.3108 0.133012 3.45511 -23.3474 0.240893 3.55001 41.1501 13.017 -5.0066 14.2684 -0.0 -0.0 -0.0 0.0 -0.0 32.7361 10.7209 -13.1321 -15.1943 -0.321914 -2.3027 -4.60536 13.2572 -0.733222 -8.8836 0.0 0.0 0.0 0.0 0.0 
